<svg width="334" height="148" viewBox="0 0 334 148" fill="none" xmlns="http://www.w3.org/2000/svg">
<g clip-path="url(#clip0)">
<path d="M64.1601 87.2015C63.6339 87.5918 63.1315 87.9481 62.6529 88.2705C62.2319 88.5827 61.7041 88.7948 61.0694 88.9067C58.5239 87.6301 56.8271 84.9247 55.9791 80.7904C55.1888 76.6459 55.1523 71.2083 55.8694 64.4776C56.1274 64.2536 56.2106 63.882 56.119 63.3626L55.1874 62.6344C54.9566 62.6751 54.7309 62.7447 54.5102 62.8431C54.3473 62.9313 54.2386 63.1587 54.1843 63.5253C52.8773 64.8862 51.4362 66.3302 49.8611 67.8574C48.2758 69.3269 46.5937 70.754 44.815 72.1386C43.0837 73.4553 41.2642 74.6091 39.3565 75.5999C37.5065 76.5806 35.6294 77.2388 33.7252 77.5746C28.8781 78.4293 24.8104 76.6179 21.522 72.1404L20.6006 70.9642L20.1066 72.2115C19.9741 72.4728 19.801 73.0091 19.587 73.8203C19.3629 74.5738 19.1591 75.4427 18.9757 76.427C18.7923 77.4113 18.6428 78.4194 18.5272 79.4512C18.4592 80.4152 18.5151 81.2383 18.6949 81.9205C18.2671 82.5314 17.8258 83.234 17.3708 84.0282C16.9159 84.8224 16.6205 85.6777 16.4846 86.5941C16.4506 87.0761 16.5846 87.4987 16.8866 87.8619C16.8628 88.4016 16.6743 88.8513 16.3213 89.2111C16.1414 89.5403 15.9326 89.8746 15.6949 90.214C15.5048 90.4855 15.3486 90.7808 15.2264 91.0998C15.1619 91.4087 15.1262 91.7124 15.1193 92.0111C15.1702 92.2997 15.1922 92.5933 15.1854 92.892C15.2566 93.2959 15.2651 93.6811 15.2107 94.0477C14.5859 96.2403 14.0358 97.676 13.5605 98.3548C13.0954 99.0912 12.3724 99.546 11.3914 99.7189C10.9298 99.8003 10.1644 99.8461 9.09517 99.8561C8.20257 99.1805 7.31681 98.2062 6.43788 96.9333C5.60648 95.5924 4.87522 94.1447 4.2441 92.59C3.67069 91.0252 3.24154 89.4349 2.95665 87.8192C2.71929 86.1357 2.75344 84.6422 3.0591 83.3389C3.04893 83.2812 3.178 82.6634 3.44631 81.4857C3.71462 80.3079 4.04237 78.7924 4.42957 76.9392C4.87448 75.0758 5.37542 73.0241 5.93238 70.7839C6.47918 68.4861 7.04123 66.2748 7.61855 64.1501C8.18569 61.9677 8.72566 59.9686 9.23844 58.1527C9.80893 56.3267 10.3064 54.93 10.7308 53.9627C11.0703 53.1889 11.3623 52.4829 11.6068 51.8449C11.8988 51.1389 12.167 50.4669 12.4115 49.8288C13.1348 47.8568 13.8563 46.2124 14.576 44.8955C15.3433 43.5108 16.5892 42.3094 18.3136 41.2914C19.6747 41.5869 20.7047 42.03 21.4039 42.6207L21.7449 43.5422C22.0774 44.0786 22.4745 44.3061 22.9362 44.2247C23.6014 44.2858 24.1513 44.3674 24.5857 44.4693C25.0677 44.5033 25.5785 44.5322 26.1182 44.556C26.6035 44.9464 27.0753 45.4285 27.5334 46.0022C28.1171 46.6132 28.672 47.2294 29.198 47.8506C29.7716 48.4039 30.2348 49.0065 30.5877 49.6582C30.9882 50.2421 31.2494 50.8802 31.3715 51.5727C31.5513 52.2549 31.5631 52.9966 31.4069 53.7976L31.646 54.6479C32.0261 55.1164 32.211 55.8275 32.2007 56.7813C32.2142 57.1954 32.2617 57.6332 32.3431 58.0948C32.4143 58.4988 32.5534 58.9502 32.7604 59.4492C33.9415 60.0739 34.936 60.315 35.7438 60.1726C36.6671 60.0098 37.4682 59.6603 38.1471 59.1241C38.8735 58.52 39.5423 57.9261 40.1533 57.3424C40.5539 56.9148 40.9647 56.5449 41.3856 56.2327C41.7964 55.8628 42.2275 55.6082 42.6789 55.4691C43.5446 54.305 44.3152 53.2767 44.9908 52.3841C45.7241 51.4813 46.4862 50.5735 47.2772 49.6605C48.7641 47.9704 50.173 46.175 51.5038 44.2745C52.8346 42.3739 53.7768 40.1253 54.3305 37.5288C54.8464 37.0808 55.4218 36.8009 56.0566 36.689C56.6913 36.577 57.3803 36.6043 58.1236 36.7707C58.867 36.9371 59.5814 37.1086 60.267 37.2852C60.4605 37.3701 60.62 37.4312 60.7456 37.4686C60.9289 37.4958 61.0833 37.528 61.2089 37.5654C61.3106 38.1424 61.6279 38.5922 62.1608 38.9147C62.4221 39.0471 62.5867 39.1371 62.6546 39.1846C62.7225 39.2322 62.8192 39.2746 62.9448 39.312C63.8918 39.621 64.5213 39.9859 64.8335 40.4069C65.4715 41.6628 66.3708 42.5455 67.5316 43.0548C67.5179 43.6521 67.6146 44.2003 67.8216 44.6993C68.0761 45.1304 68.3645 45.5853 68.6869 46.0639C68.7752 46.2269 68.8634 46.3898 68.9516 46.5527C69.0398 46.7157 69.162 46.9024 69.3181 47.1128L67.643 47.2297L68.1927 48.8285C68.4505 49.616 68.5217 50.5256 68.4061 51.5575C68.3483 52.5791 68.1971 53.409 67.9527 54.0471C68.2749 55.5372 68.5123 56.715 68.665 57.5806C68.8651 58.3783 68.9736 59.1623 68.9905 59.9328C68.9972 60.6456 68.9411 61.3398 68.8222 62.0152C68.761 62.6805 68.6234 63.4187 68.4095 64.2299C69.2915 67.8822 69.4539 71.3342 68.8968 74.5858C68.3872 77.7695 67.7894 80.7903 67.1034 83.6482C67.0388 83.957 66.9454 84.271 66.8232 84.59C66.7587 84.8989 66.6941 85.2078 66.6296 85.5166C66.1408 85.7813 65.7148 86.0647 65.3516 86.3667C64.9782 86.611 64.581 86.8893 64.1601 87.2015ZM108.946 30.6652C109.075 31.0589 109.131 31.3763 109.114 31.6173C109.145 31.7904 109.147 31.9686 109.119 32.1519C109.15 32.325 109.186 32.5269 109.226 32.7577C109.257 32.9309 109.365 33.2092 109.552 33.5928C108.686 35.7684 107.511 37.3737 106.028 38.4087C104.592 39.3759 102.981 40.1954 101.196 40.8672C99.4003 41.4813 97.5521 42.1344 95.6512 42.8266C93.808 43.5086 92.0361 44.5945 90.3354 46.0843C89.5344 45.9281 88.8419 46.0502 88.258 46.4506C87.7319 46.8409 86.8816 47.08 85.7072 47.1681C85.422 47.5754 85.035 47.9114 84.5462 48.1761C84.0472 48.383 83.5533 48.6189 83.0645 48.8835C83.3869 49.3622 83.5701 49.8951 83.6142 50.4823C83.7057 51.0016 83.8686 51.4192 84.1028 51.7349C86.1529 51.5519 88.3694 51.1313 90.7523 50.4731C93.1928 49.8048 95.5909 49.2332 97.9466 48.7583C98.0552 49.0367 98.0619 49.2437 97.9669 49.3795C97.8616 49.4575 97.8582 49.6069 97.9566 49.8275C98.4114 50.0448 98.8815 50.3487 99.3668 50.7391C99.842 51.0718 100.317 51.4045 100.792 51.7372C101.267 52.0699 101.732 52.3449 102.187 52.5622C102.69 52.7116 103.224 52.7066 103.791 52.5471C104.103 52.9681 104.339 53.462 104.498 54.0288C104.705 54.5278 104.744 55.0862 104.615 55.7039C103.804 56.5014 102.998 57.3278 102.197 58.1831C101.385 58.9806 100.506 59.7306 99.5589 60.4331C98.6695 61.1254 97.6783 61.7464 96.5853 62.2961C95.5398 62.7779 94.3195 63.1121 92.9245 63.2986C92.636 63.3495 92.4051 63.3902 92.232 63.4207C92.1166 63.441 91.9283 63.385 91.6669 63.2526C91.2562 63.6225 90.6078 63.8261 89.7219 63.8633C88.8937 63.8903 88.2743 64.0888 87.8635 64.4587C87.1779 64.2821 86.3785 64.3041 85.4655 64.5246C84.5999 64.6772 83.8006 64.6991 83.0674 64.5904C82.3578 65.965 81.7501 67.4109 81.2441 68.928C80.7381 70.4452 80.334 72.0336 80.0317 73.6934C82.0445 73.6359 83.6805 73.4665 84.9398 73.1849C86.2568 72.8932 87.4822 72.5879 88.6159 72.269C89.7395 71.8924 90.897 71.5395 92.0884 71.2105C93.2696 70.8237 94.7886 70.4963 96.6453 70.2285C97.6875 69.3902 98.9723 68.7472 100.5 68.2994C102.075 67.7837 103.485 67.178 104.731 66.4823C105.223 66.574 105.683 66.8202 106.111 67.2208C106.528 67.5636 106.917 67.9116 107.276 68.2647C107.684 68.5498 108.086 68.8062 108.483 69.0336C108.88 69.2611 109.333 69.3002 109.842 69.1509C110.114 69.341 110.309 69.6041 110.428 69.9402C110.594 70.2083 110.731 70.4816 110.84 70.7599C110.949 71.0383 111.081 71.2827 111.237 71.4931C111.441 71.6357 111.71 71.6476 112.047 71.5289C111.517 73.5857 110.766 75.2352 109.795 76.4774C108.872 77.6517 107.735 78.6257 106.384 79.3994C105.033 80.1731 103.488 80.8619 101.75 81.4658C100.07 82.0596 98.1981 82.7466 96.1343 83.527C95.6353 83.734 95.1975 83.7815 94.8207 83.6694C94.4542 83.615 94.0401 83.6286 93.5784 83.71C92.3021 84.2325 90.7611 84.772 88.9552 85.3284C87.1494 85.8848 85.2893 86.302 83.3749 86.5801C81.4605 86.8581 79.5971 86.919 77.7846 86.7626C75.9822 86.6639 74.4362 86.163 73.1466 85.26C72.6137 84.9375 72.2149 84.5318 71.9503 84.043C71.7331 83.4863 71.2817 83.1197 70.5961 82.9431C70.4061 82.2031 70.1432 81.3867 69.8073 80.494C69.4714 79.6013 69.1304 78.6797 68.7843 77.7292C68.428 76.7211 68.1057 75.7367 67.8174 74.7761C67.5867 73.8053 67.4867 72.9008 67.5173 72.0624C67.5378 71.1663 67.7467 70.3263 68.1439 69.5422C68.5989 68.748 68.6686 67.9623 68.353 67.185C68.6313 67.0764 68.779 66.9016 68.796 66.6606C68.8029 66.3619 69.0133 66.2058 69.4274 66.1923C69.5905 65.0926 69.7926 64.0455 70.0337 63.051C70.2749 62.0565 70.5211 61.0909 70.7724 60.1541C71.0814 59.2072 71.3615 58.2653 71.6128 57.3285C71.9117 56.3239 72.1664 55.2378 72.377 54.0702C71.4369 53.4625 70.6886 52.7614 70.132 51.9671C69.623 51.1049 69.2056 50.2563 68.8799 49.4213C68.544 48.5285 68.2369 47.6307 67.9587 46.7278C67.6703 45.7672 67.2954 44.8218 66.8339 43.8917C67.2583 42.9244 67.8287 42.1099 68.545 41.4481C69.3088 40.7185 70.1506 40.0941 71.0705 39.5749C71.9905 39.0557 73.0071 38.5789 74.1205 38.1446C75.2338 37.7103 76.3998 37.237 77.6184 36.7246C79.7943 35.5675 81.741 34.6292 83.4586 33.9099C85.2339 33.1804 86.9668 32.5476 88.6572 32.0115C90.3951 31.4076 92.1958 30.8223 94.0594 30.2558C95.9229 29.6892 98.0257 28.9614 100.368 28.0725C100.979 28.5002 101.515 28.6734 101.977 28.592C102.116 28.032 102.35 27.8419 102.679 28.0219C103.056 28.1339 103.17 27.9354 103.021 27.4262C103.771 28.3054 104.639 29.0149 105.627 29.5548C106.662 30.0267 107.769 30.3968 108.946 30.6652ZM167.599 68.9625C167.073 69.3528 166.57 69.7091 166.092 70.0315C165.671 70.3437 165.143 70.5558 164.508 70.6677C161.963 69.3911 160.266 66.6856 159.418 62.5513C158.628 58.4069 158.591 52.9693 159.308 46.2386C159.566 46.0146 159.649 45.6429 159.558 45.1236L158.626 44.3954C158.395 44.4361 158.17 44.5057 157.949 44.6041C157.786 44.6923 157.677 44.9197 157.623 45.2863C156.316 46.6472 154.875 48.0912 153.3 49.6184C151.714 51.0879 150.032 52.5149 148.254 53.8995C146.522 55.2163 144.703 56.3701 142.795 57.3609C140.945 58.3416 139.068 58.9998 137.164 59.3356C132.317 60.1903 128.249 58.3789 124.961 53.9014L124.039 52.7252L123.545 53.9725C123.413 54.2338 123.24 54.7701 123.026 55.5813C122.802 56.3348 122.598 57.2037 122.414 58.188C122.231 59.1723 122.081 60.1803 121.966 61.2122C121.898 62.1761 121.954 62.9992 122.134 63.6815C121.706 64.2924 121.264 64.995 120.81 65.7892C120.355 66.5833 120.059 67.4387 119.923 68.3551C119.889 68.8371 120.023 69.2597 120.325 69.6229C120.301 70.1626 120.113 70.6123 119.76 70.972C119.58 71.3012 119.371 71.6355 119.134 71.9749C118.943 72.2464 118.787 72.5417 118.665 72.8608C118.601 73.1696 118.565 73.4734 118.558 73.7721C118.609 74.0606 118.631 74.3542 118.624 74.6529C118.695 75.0568 118.704 75.4421 118.649 75.8087C118.025 78.0013 117.474 79.437 116.999 80.1157C116.534 80.8522 115.811 81.3069 114.83 81.4799C114.368 81.5613 113.603 81.607 112.534 81.6171C111.641 80.9415 110.755 79.9672 109.877 78.6943C109.045 77.3534 108.314 75.9057 107.683 74.351C107.109 72.7862 106.68 71.1959 106.395 69.5802C106.158 67.8966 106.192 66.4032 106.498 65.0998C106.488 65.0421 106.617 64.4244 106.885 63.2466C107.153 62.0689 107.481 60.5534 107.868 58.7002C108.313 56.8368 108.814 54.785 109.371 52.5449C109.918 50.2471 110.48 48.0358 111.057 45.9111C111.624 43.7287 112.164 41.7295 112.677 39.9137C113.248 38.0877 113.745 36.691 114.169 35.7237C114.509 34.9499 114.801 34.2439 115.045 33.6058C115.337 32.8999 115.606 32.2278 115.85 31.5898C116.573 29.6178 117.295 27.9734 118.015 26.6565C118.782 25.2718 120.028 24.0704 121.752 23.0524C123.113 23.3478 124.143 23.7909 124.843 24.3816L125.184 25.3032C125.516 25.8396 125.913 26.067 126.375 25.9856C127.04 26.0468 127.59 26.1284 128.024 26.2302C128.506 26.2642 129.017 26.2932 129.557 26.317C130.042 26.7074 130.514 27.1895 130.972 27.7632C131.556 28.3742 132.111 28.9903 132.637 29.6116C133.21 30.1649 133.673 30.7674 134.026 31.4192C134.427 32.003 134.688 32.6412 134.81 33.3336C134.99 34.0159 135.002 34.7576 134.846 35.5586L135.085 36.4089C135.465 36.8773 135.65 37.5884 135.639 38.5422C135.653 38.9563 135.7 39.3942 135.782 39.8558C135.853 40.2597 135.992 40.7112 136.199 41.2102C137.38 41.8349 138.375 42.076 139.182 41.9336C140.106 41.7708 140.907 41.4213 141.586 40.8851C142.312 40.281 142.981 39.6871 143.592 39.1034C143.993 38.6758 144.403 38.3059 144.824 37.9936C145.235 37.6237 145.666 37.3692 146.118 37.2301C146.983 36.066 147.754 35.0377 148.429 34.1451C149.163 33.2423 149.925 32.3344 150.716 31.4215C152.203 29.7314 153.612 27.936 154.942 26.0354C156.273 24.1348 157.216 21.8863 157.769 19.2898C158.285 18.8418 158.86 18.5618 159.495 18.4499C160.13 18.338 160.819 18.3653 161.562 18.5317C162.306 18.6981 163.02 18.8696 163.706 19.0462C163.899 19.1311 164.059 19.1922 164.184 19.2296C164.368 19.2567 164.522 19.289 164.648 19.3264C164.749 19.9034 165.067 20.3532 165.599 20.6757C165.861 20.8081 166.025 20.8981 166.093 20.9456C166.161 20.9931 166.258 21.0356 166.383 21.0729C167.33 21.3819 167.96 21.7469 168.272 22.1678C168.91 23.4238 169.81 24.3064 170.97 24.8157C170.957 25.4131 171.053 25.9613 171.26 26.4603C171.515 26.8914 171.803 27.3463 172.126 27.8249C172.214 27.9878 172.302 28.1508 172.39 28.3137C172.479 28.4766 172.601 28.6633 172.757 28.8738L171.082 28.9907L171.631 30.5894C171.889 31.3769 171.96 32.2866 171.845 33.3184C171.787 34.3401 171.636 35.17 171.391 35.8081C171.714 37.2982 171.951 38.476 172.104 39.3416C172.304 40.1392 172.412 40.9233 172.429 41.6938C172.436 42.4066 172.38 43.1007 172.261 43.7762C172.2 44.4414 172.062 45.1797 171.848 45.9908C172.73 49.6432 172.893 53.0951 172.335 56.3468C171.826 59.5305 171.228 62.5513 170.542 65.4091C170.478 65.718 170.384 66.032 170.262 66.351C170.197 66.6599 170.133 66.9687 170.068 67.2776C169.579 67.5423 169.153 67.8256 168.79 68.1277C168.417 68.372 168.02 68.6503 167.599 68.9625ZM212.385 12.4261C212.514 12.8199 212.57 13.1372 212.553 13.3782C212.584 13.5513 212.585 13.7295 212.558 13.9128C212.589 14.0859 212.624 14.2879 212.665 14.5187C212.695 14.6918 212.804 14.9702 212.991 15.3537C212.125 17.5293 210.95 19.1346 209.467 20.1697C208.031 21.1368 206.42 21.9563 204.635 22.6281C202.839 23.2423 200.991 23.8954 199.09 24.5875C197.247 25.2695 195.475 26.3554 193.774 27.8453C192.973 27.689 192.281 27.8111 191.697 28.2116C191.171 28.6018 190.32 28.841 189.146 28.9291C188.861 29.3364 188.474 29.6723 187.985 29.937C187.486 30.144 186.992 30.3798 186.503 30.6445C186.826 31.1232 187.009 31.6561 187.053 32.2433C187.144 32.7626 187.307 33.1801 187.541 33.4958C189.592 33.3128 191.808 32.8923 194.191 32.2341C196.631 31.5658 199.03 30.9942 201.385 30.5193C201.494 30.7977 201.501 31.0047 201.406 31.1405C201.3 31.2185 201.297 31.3679 201.395 31.5885C201.85 31.8058 202.32 32.1096 202.805 32.5001C203.281 32.8328 203.756 33.1655 204.231 33.4982C204.706 33.8309 205.171 34.1059 205.626 34.3232C206.128 34.4726 206.663 34.4676 207.23 34.3081C207.542 34.729 207.778 35.2229 207.937 35.7898C208.144 36.2888 208.183 36.8471 208.054 37.4649C207.243 38.2624 206.436 39.0888 205.635 39.944C204.824 40.7416 203.945 41.4916 202.998 42.194C202.108 42.8863 201.117 43.5074 200.024 44.0571C198.978 44.5389 197.758 44.8731 196.363 45.0596C196.075 45.1104 195.844 45.1511 195.671 45.1817C195.555 45.202 195.367 45.146 195.106 45.0136C194.695 45.3835 194.046 45.587 193.161 45.6243C192.332 45.6513 191.713 45.8498 191.302 46.2197C190.617 46.0431 189.817 46.065 188.904 46.2855C188.039 46.4382 187.239 46.4601 186.506 46.3514C185.796 47.726 185.189 49.1718 184.683 50.689C184.177 52.2061 183.773 53.7946 183.47 55.4543C185.483 55.3969 187.119 55.2274 188.379 54.9459C189.696 54.6542 190.921 54.3488 192.055 54.0299C193.178 53.6533 194.336 53.3005 195.527 52.9714C196.708 52.5846 198.227 52.2573 200.084 51.9894C201.126 51.1512 202.411 50.5082 203.938 50.0603C205.513 49.5446 206.924 48.939 208.17 48.2433C208.662 48.335 209.122 48.5812 209.549 48.9817C209.967 49.3246 210.355 49.6726 210.715 50.0256C211.122 50.3108 211.524 50.5671 211.922 50.7946C212.319 51.0221 212.772 51.0612 213.281 50.9119C213.552 51.102 213.748 51.3651 213.866 51.7011C214.033 51.9693 214.17 52.2426 214.279 52.5209C214.387 52.7992 214.52 53.0437 214.676 53.2541C214.879 53.3967 215.149 53.4086 215.485 53.2899C214.955 55.3467 214.205 56.9962 213.234 58.2384C212.311 59.4126 211.173 60.3866 209.822 61.1603C208.471 61.934 206.927 62.6228 205.189 63.2268C203.509 63.8205 201.637 64.5076 199.573 65.288C199.074 65.495 198.636 65.5424 198.259 65.4304C197.893 65.376 197.479 65.3895 197.017 65.4709C195.741 65.9935 194.2 66.5329 192.394 67.0893C190.588 67.6458 188.728 68.063 186.814 68.341C184.899 68.6191 183.036 68.6799 181.223 68.5236C179.421 68.4249 177.875 67.924 176.585 67.021C176.052 66.6984 175.654 66.2928 175.389 65.804C175.172 65.2473 174.72 64.8806 174.035 64.704C173.845 63.9641 173.582 63.1477 173.246 62.255C172.91 61.3622 172.569 60.4407 172.223 59.4902C171.867 58.4821 171.544 57.4977 171.256 56.5371C171.025 55.5663 170.925 54.6617 170.956 53.8234C170.976 52.9273 171.185 52.0872 171.583 51.3032C172.038 50.509 172.107 49.7233 171.792 48.9459C172.07 48.8374 172.218 48.6626 172.235 48.4216C172.242 48.1229 172.452 47.9668 172.866 47.9533C173.029 46.8536 173.231 45.8065 173.472 44.812C173.714 43.8175 173.96 42.8519 174.211 41.9151C174.52 40.9681 174.8 40.0263 175.052 39.0895C175.35 38.0849 175.605 36.9987 175.816 35.8311C174.876 35.2234 174.127 34.5224 173.571 33.7281C173.062 32.8659 172.644 32.0173 172.319 31.1822C171.983 30.2895 171.676 29.3917 171.397 28.4888C171.109 27.5282 170.734 26.5828 170.273 25.6527C170.697 24.6854 171.267 23.8709 171.984 23.2091C172.747 22.4794 173.589 21.855 174.509 21.3358C175.429 20.8166 176.446 20.3399 177.559 19.9056C178.673 19.4713 179.838 18.9979 181.057 18.4856C183.233 17.3284 185.18 16.3902 186.897 15.6709C188.673 14.9414 190.405 14.3086 192.096 13.7725C193.834 13.1686 195.635 12.5833 197.498 12.0167C199.362 11.4502 201.464 10.7224 203.807 9.83342C204.417 10.2612 204.954 10.4344 205.415 10.353C205.555 9.79294 205.789 9.60289 206.118 9.78283C206.495 9.89489 206.609 9.69635 206.459 9.18719C207.209 10.0664 208.078 10.7759 209.066 11.3157C210.101 11.7877 211.207 12.1578 212.385 12.4261Z" fill="#FC771D"/>
<path d="M84 129V106.695C84 104.612 83.9479 102.867 83.8438 101.461C83.7656 100.055 83.5573 98.6224 83.2188 97.1641C82.9062 95.7057 82.4505 94.5599 81.8516 93.7266C81.2786 92.8672 80.4714 92.1771 79.4297 91.6562C78.388 91.1094 77.138 90.8359 75.6797 90.8359C72.8151 90.8359 70.3672 91.6042 68.3359 93.1406C66.3307 94.6771 64.8984 96.8385 64.0391 99.625C63.8047 101.5 63.6875 103.505 63.6875 105.641V129H57.1641V105.992C57.1641 104.065 57.099 102.398 56.9688 100.992C56.8385 99.5599 56.5911 98.1797 56.2266 96.8516C55.862 95.4974 55.3672 94.4036 54.7422 93.5703C54.1432 92.737 53.3359 92.0729 52.3203 91.5781C51.3047 91.0833 50.0938 90.8359 48.6875 90.8359C45.5625 90.8359 42.9323 91.6302 40.7969 93.2188C38.6875 94.8073 37.2682 96.9167 36.5391 99.5469C36.3047 101.552 36.1875 103.727 36.1875 106.07V129H29.6641C29.612 102.203 29.5859 87.9193 29.5859 86.1484H35.0547L35.875 92.2812C37.1771 90.3021 39.026 88.6354 41.4219 87.2812C43.8177 85.9271 46.5391 85.25 49.5859 85.25C51.1745 85.25 52.6328 85.4193 53.9609 85.7578C55.3151 86.0703 56.4349 86.474 57.3203 86.9688C58.2318 87.4635 59.0391 88.0625 59.7422 88.7656C60.4453 89.4427 60.9922 90.1198 61.3828 90.7969C61.7734 91.4479 62.099 92.138 62.3594 92.8672C65.4844 87.7891 70.263 85.25 76.6953 85.25C81.4609 85.25 84.9505 86.6172 87.1641 89.3516C89.4036 92.0599 90.5234 96.0833 90.5234 101.422V129H84ZM103.666 124.625C106.765 124.625 109.486 123.779 111.83 122.086C114.199 120.367 115.723 118.062 116.4 115.172V107.945C116.27 107.945 115.476 108.01 114.017 108.141C112.585 108.271 111.647 108.349 111.205 108.375C105.554 108.87 101.608 109.794 99.3688 111.148C97.1552 112.503 96.0484 114.677 96.0484 117.672C96.0484 119.964 96.7255 121.695 98.0797 122.867C99.4339 124.039 101.296 124.625 103.666 124.625ZM117.845 129C117.455 127.333 117.077 125.536 116.713 123.609C114.343 125.979 112.116 127.62 110.033 128.531C107.949 129.443 105.502 129.898 102.689 129.898C98.6786 129.898 95.4495 128.857 93.0016 126.773C90.5797 124.664 89.3688 121.643 89.3688 117.711C89.3688 113.336 91.0224 110.094 94.3297 107.984C97.663 105.875 102.455 104.56 108.705 104.039C109.564 103.961 110.853 103.857 112.572 103.727C114.317 103.57 115.619 103.453 116.478 103.375V99.5859C116.478 96.5651 115.775 94.3255 114.369 92.8672C112.963 91.4089 110.749 90.6797 107.728 90.6797C103.509 90.6797 99.2516 91.7214 94.9547 93.8047C94.8245 93.4922 94.4859 92.5938 93.9391 91.1094C93.3922 89.599 93.1057 88.8177 93.0797 88.7656C94.9807 87.6979 97.2333 86.8516 99.8375 86.2266C102.468 85.5755 105.137 85.25 107.845 85.25C113.184 85.25 117.025 86.4219 119.369 88.7656C121.739 91.0833 122.923 95.0417 122.923 100.641V129H117.845ZM126.652 129V69.5078L133.136 69.1172V100.25V105.719C133.292 105.562 133.527 105.302 133.839 104.938C134.152 104.573 134.399 104.299 134.581 104.117C136.847 101.643 142.706 95.6536 152.159 86.1484H160.441L142.628 104.195L161.691 129H153.566L137.902 107.906L133.136 112.008V129H126.652ZM183.583 94.0781C181.682 91.7865 179.065 90.6406 175.731 90.6406C172.398 90.6406 169.677 91.8255 167.567 94.1953C165.458 96.5391 164.221 99.7552 163.856 103.844H186.473C186.473 99.599 185.51 96.3438 183.583 94.0781ZM177.02 129.898C170.796 129.898 165.887 127.919 162.294 123.961C158.726 120.003 156.942 114.586 156.942 107.711C156.942 101.07 158.674 95.6927 162.137 91.5781C165.601 87.4375 170.158 85.3281 175.809 85.25C181.122 85.25 185.328 87.0729 188.427 90.7188C191.552 94.3385 193.114 99.1823 193.114 105.25C193.114 105.562 193.101 106.135 193.075 106.969C193.075 107.802 193.075 108.401 193.075 108.766H163.661C163.739 113.635 164.989 117.438 167.411 120.172C169.859 122.88 173.14 124.234 177.255 124.234C181.786 124.234 186.33 123.036 190.887 120.641L191.903 125.914C187.554 128.57 182.593 129.898 177.02 129.898ZM213.795 85.7578C214.967 85.7578 216.035 85.8359 216.998 85.9922L216.764 92.0078C215.566 91.7995 214.524 91.6953 213.639 91.6953C209.993 91.6953 207.024 92.9714 204.733 95.5234C202.467 98.0495 201.334 101.188 201.334 104.938V129H194.811C194.785 102.698 194.772 88.4141 194.772 86.1484H200.202L200.827 93.8438C202.311 91.4219 204.199 89.4688 206.491 87.9844C208.782 86.5 211.217 85.7578 213.795 85.7578Z" fill="#D8D8D8"/>
<path d="M307.4 152.5C302.44 152.48 297.46 152.48 292.5 152.46C282.76 152.44 273.04 152.44 263.3 152.44C251.14 152.44 238.96 152.66 226.78 152.44C218.7 152.3 222.36 147.14 221.92 141.64C221.5 136.58 217.7 133.04 216.2 128.6C211.56 114.88 222.88 87.94 222.88 87.94L220.36 85.42C217.92 82.98 215.8 80.24 214.06 77.28C209.78 70 201.5 55.96 198.46 51.08C197.14 48.96 196.08 46.3 196.5 43.74C196.66 42.8 197.18 41.88 198.04 41.46C198.58 41.2 199.18 41.18 199.76 41.16C201.52 41.12 203.14 41.28 204.9 41.6C213.24 43.14 221.24 46.48 228.16 51.36C235.4 56.46 242.5 61.64 248.76 67.98C255.8 66.32 282.26 67.26 282.26 67.26C284.36 66.08 286.5 65.02 288.66 63.98C295.04 60.92 301.56 58.16 308.12 55.58C314.1 53.22 320.28 50.6 326.62 49.5C328.08 49.24 329.62 49.22 330.96 49.8C333.44 50.88 333.5 53.88 333.56 56.2C333.68 62.06 332.66 65.92 329.16 70.58C325.54 75.4 322.04 80.3 318.06 84.82C317.54 85.42 310.74 92.48 310.12 91.48C313.98 97.76 315.26 105.46 316.94 112.52C318.72 120.06 320.34 127.64 321.4 135.32C321.96 139.46 323.66 145.18 322.98 149.32C322.72 150.88 321.6 151.74 320.1 152.18C316.28 153.38 311.36 152.5 307.4 152.5Z" fill="white"/>
<path d="M318.82 147.9H225.92C226.7 145.86 227.72 141.12 227.66 140.56C227.5 139.06 226.7 137.68 225.92 136.36C225.58 135.8 225.28 135.26 225.02 134.74C224.28 133.22 223.56 131.64 222.88 130.12C222.56 129.42 222.24 128.72 221.92 128.02C215.66 114.46 229.1 87.08 229.24 86.82L229.42 86.46L229.12 86.18C222.1 80 215.78 71.84 209.24 60.54C207.68 57.84 206.16 55.12 204.76 52.46C203.92 50.86 203.2 49.34 202.6 47.84C202.56 47.72 202.4 47.2 202.26 46.7C202.02 45.86 201.84 45.24 201.7 44.78C230.96 54 246.6 72.78 246.76 72.98L246.98 73.24L247.32 73.14C260.3 69.64 283.2 72.42 283.42 72.44L283.6 72.46L283.76 72.38C300.34 63.2 325.14 54.94 329.54 53.5C329.56 54.88 329.44 56.28 329.32 57.64C329.28 58.14 329.24 58.62 329.2 59.12C328.92 63.12 326.32 66.72 324.02 69.9L323.68 70.38C319.36 76.4 314.96 81.26 310.22 85.24C309.54 85.8 308.8 86.4 307.88 87.14C307.42 87.5 306.82 87.96 306.2 88.42C305.84 88.68 304.94 89.18 304.62 89.34L304.04 89.64L304.46 90.14C304.48 90.16 305.68 91.64 306.2 92.42C308.42 95.82 309.62 99.82 310.42 102.9C311.02 105.24 311.52 107.66 312 110C312.26 111.3 312.54 112.64 312.82 113.96C315.12 124.54 317.14 135.96 318.82 147.9Z" fill="#ECBC3D"/>
<path d="M329.26 53.72C329.28 55.1 329.16 56.5 329.04 57.86C329 58.36 328.96 58.84 328.92 59.34C328.64 63.34 326.04 66.94 323.74 70.12L323.4 70.6C323.18 70.9 322.96 71.2 322.74 71.5C322.54 71.78 322.34 72.06 322.12 72.32C325.02 65.82 325.1 57.96 325.14 54.72C327.04 54.12 328.5 53.98 329.26 53.72ZM210.32 48.24C208.96 47.68 207.58 47.14 206.14 46.6C206.06 46.56 205.96 46.54 205.88 46.5C205.22 46.26 204.54 46.02 203.88 45.8C203.78 45.76 203.66 45.72 203.56 45.7C202.86 45.46 202.16 45.24 201.44 45C201.58 45.46 201.76 46.08 202 46.92C202.14 47.42 202.28 47.94 202.34 48.06C202.94 49.56 203.64 51.06 204.5 52.68C205.9 55.34 207.42 58.06 208.98 60.76C209.36 61.4 209.72 62.04 210.1 62.66C210.46 63.28 210.84 63.88 211.2 64.48C209.14 56.94 209.92 50.56 210.32 48.24Z" fill="#7E2B19"/>
<path d="M250.64 98.24C250.64 101.34 248.64 103.84 246.16 103.84C243.7 103.84 241.68 101.32 241.68 98.24C241.68 95.16 243.68 92.64 246.16 92.64C248.64 92.64 250.64 95.16 250.64 98.24ZM287.42 92.64C284.96 92.64 282.94 95.16 282.94 98.24C282.94 101.32 284.94 103.84 287.42 103.84C289.88 103.84 291.9 101.32 291.9 98.24C291.9 95.16 289.9 92.64 287.42 92.64ZM263.46 106.6C261.5 106.6 260.24 107.28 260.24 107.76C260.24 108.24 261.5 108.92 263.46 108.92C265.42 108.92 266.68 108.24 266.68 107.76C266.68 107.28 265.42 106.6 263.46 106.6Z" fill="#7D2B18"/>
<path d="M246.94 96.32C246.94 97.38 246.08 98.24 245.02 98.24C243.96 98.24 243.1 97.38 243.1 96.32C243.1 95.26 243.96 94.4 245.02 94.4C246.08 94.4 246.94 95.26 246.94 96.32ZM286.28 94.4C285.22 94.4 284.36 95.26 284.36 96.32C284.36 97.38 285.22 98.24 286.28 98.24C287.34 98.24 288.2 97.38 288.2 96.32C288.2 95.26 287.34 94.4 286.28 94.4Z" fill="white"/>
<path d="M307.46 116.36C307.46 120.08 303.98 123.08 299.68 123.08C295.38 123.08 291.9 120.08 291.9 116.36C291.9 112.64 295.38 109.64 299.68 109.64C303.98 109.64 307.46 112.64 307.46 116.36ZM231.94 109.64C227.96 109.64 224.74 112.42 224.74 115.86C224.74 119.3 227.96 122.08 231.94 122.08C235.92 122.08 239.14 119.3 239.14 115.86C239.14 112.42 235.92 109.64 231.94 109.64Z" fill="#CE5828"/>
<path d="M274.08 123.58C274.08 125.58 273.62 127.04 272.64 128.02C271.46 129.2 269.54 129.74 266.38 129.74C261.78 129.74 258.68 126 258.68 122.52C258.68 119.16 261.62 117.08 266.38 117.08C270.88 117.08 274.04 117.54 274.08 123.58Z" fill="#EF805F"/>
<path d="M330.32 52.9801L330.3 52.2801L329.64 52.5001C329.36 52.5801 301.4 61.5201 283.14 71.6001C281 71.3401 259.76 69.0001 247.14 72.2601C246.96 72.3001 245.48 70.4601 245.32 70.2801C244.14 69.0601 242.9 67.8801 241.66 66.7401C237.7 63.1401 233.42 59.8601 228.94 56.9001C222.76 52.8201 216.16 49.3801 209.28 46.6401C207.88 46.0801 206.46 45.5401 205.02 45.0401C204.14 44.7401 203.28 44.3601 202.4 44.0601C201.54 43.7801 200.54 43.3601 200.26 44.6401C200.12 45.2601 200.58 45.8801 200.76 46.4401C202.4 51.6801 205.34 56.5401 208.08 61.2601C212.7 69.2201 217.94 76.9801 224.4 83.5801C225.52 84.7201 226.68 85.8401 227.86 86.9001C227.82 86.9801 227.8 87.0401 227.8 87.0601C227.8 87.0801 227.78 87.1001 227.78 87.1401C225.78 91.3201 214.7 115.62 220.72 128.7C221.04 129.4 221.36 130.1 221.68 130.8C222.38 132.32 223.1 133.9 223.84 135.44C224.12 136 224.46 136.58 224.78 137.14C225.5 138.36 226.24 139.64 226.38 140.9C226.4 141.54 225.12 147.1 224.56 148.14H226.42C226.8 148.14 227.26 144.08 227.32 143.56C227.58 141.72 228 140.2 227.4 138.44C226.18 134.9 223.3 131.46 221.94 128C220.18 123.52 220.14 118.96 220.74 114.26C221.38 109.14 223.12 104.1 224.8 99.2201C226 95.7001 231.7 82.8401 232.64 81.6401C232.74 81.5001 232.86 81.3201 232.78 81.1601C232.66 80.9401 232.32 81.0201 232.1 81.1601C230.92 81.9001 230.04 83.0001 229.16 84.0801C228.74 84.6001 228.32 85.5001 228.32 85.5001C228.32 85.5001 218.44 74.1601 217.14 72.3401C215.9 70.6001 214.06 68.8401 213.36 66.8001C211.6 61.7201 211.38 56.8201 211.76 51.5601C211.78 51.3401 212.5 49.4201 212.46 49.3801C235.34 59.1601 246.42 73.0201 246.56 73.1801L246.78 73.4401L247.12 73.7001C260.1 70.2001 283.34 73.3201 283.58 73.3601C283.58 73.3601 307.94 61.3401 320.52 56.7201C321.86 56.2201 322.5 56.1201 323.84 55.6601C323.64 55.7401 323.22 62.1801 323.08 62.9401C322.6 65.6001 322.58 68.2001 321.56 70.7001C320.46 73.3601 319.02 75.7801 317.32 77.9801C315.62 80.2001 313.66 82.2201 311.52 84.1201C309.62 85.8201 307.64 86.7201 305.36 87.9001C304.1 88.5601 303.16 87.8001 302.26 87.0601C301.06 86.0601 299.72 85.1401 298.22 84.6401C297.94 84.5401 297.64 84.7001 297.54 84.9801C297.44 85.2601 297.6 85.5601 297.88 85.6601C302.68 87.2601 305.76 92.0601 307.68 96.5201C310.1 102.16 310.9 108.24 312.22 114.16C314.56 124.74 316.58 136.14 318.26 148.1H319.7C318.02 136.06 315.98 124.58 313.64 113.94C313.36 112.62 313.08 111.3 312.82 110C312.34 107.66 311.84 105.22 311.24 102.86C310.42 99.6801 309.18 95.6001 306.88 92.0601C306.52 91.5201 305.9 90.7001 305.48 90.1801C305.86 89.9601 306.34 89.6801 306.62 89.4801C307.26 89.0201 307.86 88.5401 308.34 88.1801C309.28 87.4401 310.04 86.8401 310.72 86.2601C315.54 82.2201 320 77.3001 324.36 71.2201L324.7 70.7401C327.08 67.4401 329.76 63.7001 330.08 59.4001C330.12 58.9201 330.16 58.4201 330.2 57.9401C330.26 56.3401 330.4 54.6601 330.32 52.9801ZM208.96 60.7401C207.4 58.0401 205.88 55.3201 204.48 52.6601C203.64 51.0601 202.92 49.5401 202.32 48.0401C202.28 47.9201 202.12 47.4001 201.98 46.9001C201.74 46.0601 201.56 45.4401 201.42 44.9801C204.54 45.9601 207.5 47.0601 210.3 48.2201C209.9 50.5401 209.12 56.9201 211.16 64.4601C210.44 63.2601 209.7 62.0201 208.96 60.7401ZM329.04 57.8601C329 58.3601 328.96 58.8401 328.92 59.3401C328.64 63.3401 326.04 66.9401 323.74 70.1201L323.4 70.6001C322.98 71.2001 322.56 71.7601 322.12 72.3401C325.06 65.7601 325.16 58.1001 325.22 54.9401C326.92 54.3601 328.54 53.9401 329.26 53.7001C329.28 55.1201 329.16 56.5201 329.04 57.8601ZM245.82 91.5601C242.96 91.5601 240.64 94.7601 240.64 98.2401C240.64 101.72 243.32 104.56 246.18 104.56C250.26 104.56 251.14 101.72 251.36 98.2401C251.66 93.6001 248.68 91.5601 245.82 91.5601ZM241.7 98.2401C241.7 95.1401 243.7 92.6401 246.18 92.6401C248.64 92.6401 250.66 95.1601 250.66 98.2401C250.66 101.32 248.66 103.84 246.18 103.84C243.7 103.86 241.7 101.34 241.7 98.2401ZM287.42 91.5601C284.56 91.5601 282.24 94.7601 282.24 98.2401C282.24 101.72 284.56 104.92 287.42 104.92C291.52 104.92 292.96 101.72 292.96 98.2401C292.96 94.7601 290.28 91.5601 287.42 91.5601ZM282.96 98.2401C282.96 95.1401 284.96 92.6401 287.44 92.6401C289.9 92.6401 291.92 95.1601 291.92 98.2401C291.92 101.32 289.92 103.84 287.44 103.84C284.96 103.86 282.96 101.34 282.96 98.2401ZM264.18 105.52C261.94 105.52 259.28 106.72 259.52 107.76C259.9 109.34 261.22 109.64 263.46 109.64C265.7 109.64 267.4 108.84 267.4 107.76C267.4 106.68 266.42 105.52 264.18 105.52ZM263.46 108.92C261.5 108.92 260.24 108.24 260.24 107.76C260.24 107.28 261.5 106.6 263.46 106.6C265.42 106.6 266.68 107.28 266.68 107.76C266.68 108.24 265.42 108.92 263.46 108.92ZM266.38 116.36C261.2 116.68 257.62 118.72 257.62 122.5C257.62 126.34 261.36 130.8 266.38 130.8C268.64 130.8 271.44 130.22 273.14 128.52C274.26 127.4 274.8 125.78 274.78 123.58C274.76 116.9 272.18 116 266.38 116.36ZM258.7 122.5C258.7 119.14 261.64 117.06 266.4 117.06C270.88 117.06 274.06 117.52 274.1 123.56C274.1 125.56 273.64 127.02 272.66 128C271.48 129.18 269.56 129.72 266.4 129.72C261.78 129.72 258.7 126 258.7 122.5Z" fill="#5C120D"/>
</g>
<defs>
<clipPath id="clip0">
<rect width="334" height="148" fill="white"/>
</clipPath>
</defs>
</svg>
